:SAMPLES-PER-SECOND 30
:FULLY-SPECIFIED
:DEGREES
395
root  -6.37673 19.3827 71.6158 51.4888 2.11398 10.48
RightUpLeg  -63.1347 -5.59673 13.6827
RightLeg  121.559 22.4774 -10.3649
RightFoot  -21.9321 0.309279 3.12812
RightToes  5.82077e-011 -3.18055e-015 -2.98177e-016
Spine  35.9991 -5.07703 5.29734
Spine1  7.65295 -3.19723 -4.14367
HEad  -22.9759 6.11071 2.35872
LeftShoulder1  -3.88251e-019 9.70628e-020 -3.87848e-018
LeftArm  2.89617 -31.6748 -65.3335
LeftForeArm  15.4075 -6.51141 -6.1805
LeftHand  -12.3195 -11.5732 74.3765
RightShoulder  4.85054 10.0848 22.1109
RightArm  -7.0605 6.36039 66.349
RightForeArm  18.0853 22.4332 -12.8743
RightHand  -13.6531 11.133 -79.8203
LeftUpLeg  -59.6884 -6.24912 -4.85874
LeftLeg  113.992 -22.2054 17.2503
LeftFoot  -21.3695 -0.086734 -0.109746
LeftToes  9.37148e-011 4.50685e-012 -4.11107e-011
396
root  -6.72108 19.523 71.5824 49.9871 1.70165 12.624
RightUpLeg  -61.753 -6.64355 12.1784
RightLeg  121.577 22.4213 -10.2804
RightFoot  -22.031 0.328535 3.34012
RightToes  5.82077e-011 -3.18055e-015 -2.98177e-016
Spine  37.0674 -4.73678 2.68653
Spine1  8.51242 -3.94693 -3.1612
HEad  -22.5161 6.92083 2.66208
LeftShoulder1  -3.88251e-019 9.70628e-020 -3.87848e-018
LeftArm  3.15766 -32.8748 -65.1663
LeftForeArm  15.4859 -5.65953 -6.06488
LeftHand  -12.0513 -11.4879 73.4415
RightShoulder  4.52172 10.0493 20.3094
RightArm  -8.75782 7.23308 68.1436
RightForeArm  18.374 21.3953 -12.5113
RightHand  -13.656 11.0743 -80.0327
LeftUpLeg  -63.8978 -5.77287 -5.43807
LeftLeg  118.191 -22.4998 15.3206
LeftFoot  -27.8457 -0.386606 -2.46419
LeftToes  9.37148e-011 4.50685e-012 -4.11107e-011
397
root  -7.04166 19.6779 71.5425 48.0579 1.56983 15.0676
RightUpLeg  -59.9086 -8.09257 10.6372
RightLeg  121.395 22.6355 -10.6516
RightFoot  -21.9645 0.380533 4.04979
RightToes  5.82077e-011 -3.18055e-015 -2.98177e-016
Spine  38.3241 -4.64022 0.282399
Spine1  9.47361 -4.85101 -2.62187
HEad  -22.2305 7.91503 3.44431
LeftShoulder1  -3.88251e-019 9.70628e-020 -3.87848e-018
LeftArm  3.87155 -33.9091 -65.1212
LeftForeArm  15.4208 -4.95956 -6.08374
LeftHand  -11.6076 -11.2463 72.191
RightShoulder  4.25086 10.1164 18.6537
RightArm  -10.4596 8.19534 69.8891
RightForeArm  18.6886 20.112 -12.274
RightHand  -13.6288 11.0326 -80.0623
LeftUpLeg  -68.3153 -5.42806 -6.48471
LeftLeg  121.234 -22.6045 13.9635
LeftFoot  -31.8907 -0.373256 -1.7847
LeftToes  9.37148e-011 4.50685e-012 -4.11107e-011
398
root  -7.31223 19.8595 71.5014 45.8261 1.67117 17.4478
RightUpLeg  -57.6739 -9.78624 9.17095
RightLeg  120.91 23.056 -11.4337
RightFoot  -21.9218 0.428912 4.70491
RightToes  5.82077e-011 -3.18055e-015 -2.98177e-016
Spine  39.7577 -4.67964 -1.809
Spine1  10.4859 -5.71448 -2.50201
HEad  -22.0786 9.06899 4.49014
LeftShoulder1  -3.88251e-019 9.70628e-020 -3.87848e-018
LeftArm  5.29717 -35.2363 -65.3649
LeftForeArm  16.4927 -3.42246 -6.33883
LeftHand  -11.0432 -10.8548 70.8042
RightShoulder  4.04222 10.2631 17.2332
RightArm  -10.2362 9.39732 71.1005
RightForeArm  17.5246 18.4136 -12.0628
RightHand  -13.6495 11.021 -80.1884
LeftUpLeg  -72.5234 -5.14252 -8.05528
LeftLeg  122.733 -23.1219 13.9822
LeftFoot  -34.1205 0.13122 1.23168
LeftToes  9.37148e-011 4.50685e-012 -4.11107e-011
399
root  -7.48761 19.9856 71.4264 43.6591 1.95219 19.2319
RightUpLeg  -55.4697 -11.2756 8.07134
RightLeg  120.513 23.5642 -12.322
RightFoot  -22.1724 0.460099 4.9604
RightToes  5.82077e-011 -3.18055e-015 -2.98177e-016
Spine  40.9761 -4.40729 -3.49549
Spine1  11.1126 -6.34651 -1.71066
HEad  -21.5925 10.0485 4.97813
LeftShoulder1  -3.88251e-019 9.70628e-020 -3.87848e-018
LeftArm  6.66035 -36.8072 -66.5046
LeftForeArm  19.3815 -1.21584 -6.27419
LeftHand  -10.1678 -10.1753 68.7058
RightShoulder  3.80512 10.4715 15.5762
RightArm  -8.25196 10.7096 71.7903
RightForeArm  15.0218 15.9639 -11.7276
RightHand  -13.7852 11.0775 -80.5582
LeftUpLeg  -77.1257 -4.49902 -9.36485
LeftLeg  124.017 -22.866 13.0928
LeftFoot  -36.1934 0.255653 1.73337
LeftToes  9.37148e-011 4.50685e-012 -4.11107e-011
400
root  -7.57874 20.0773 71.3356 41.6689 2.3057 20.4464
RightUpLeg  -53.3583 -12.324 7.07062
RightLeg  120.39 23.8324 -12.7599
RightFoot  -22.559 0.490776 5.11178
RightToes  5.82077e-011 -3.18055e-015 -2.98177e-016
Spine  41.8026 -3.71891 -4.91953
Spine1  11.3106 -6.6079 -0.215324
HEad  -20.5721 10.5409 4.6877
LeftShoulder1  -3.88251e-019 9.70628e-020 -3.87848e-018
LeftArm  7.10738 -37.9765 -68.7846
LeftForeArm  23.0733 -1.22099 -4.97031
LeftHand  -8.77769 -9.08708 64.8571
RightShoulder  3.51976 10.7428 13.5868
RightArm  -5.93277 11.8938 72.0603
RightForeArm  12.3638 12.8498 -11.2238
RightHand  -14.0073 11.2046 -81.0375
LeftUpLeg  -82.0878 -3.98043 -10.8473
LeftLeg  125.013 -22.4249 12.1378
LeftFoot  -37.2958 0.374229 2.22172
LeftToes  9.37148e-011 4.50685e-012 -4.11107e-011
401
root  -7.60155 20.1923 71.2172 39.6761 2.69522 21.2593
RightUpLeg  -51.1816 -13.0282 5.76617
RightLeg  120.671 23.531 -12.2128
RightFoot  -22.8421 0.528039 5.39078
RightToes  5.82077e-011 -3.18055e-015 -2.98177e-016
Spine  42.318 -2.97384 -5.72901
Spine1  11.4064 -6.46201 1.04316
HEad  -19.4191 10.403 4.24997
LeftShoulder1  -3.88251e-019 9.70628e-020 -3.87848e-018
LeftArm  7.21941 -38.3547 -71.4841
LeftForeArm  25.5005 -1.01304 -3.63717
LeftHand  -7.02548 -7.7371 58.6955
RightShoulder  3.31199 11.0168 12.068
RightArm  -4.28675 12.8306 71.587
RightForeArm  10.5425 9.895 -10.5351
RightHand  -14.1494 11.2935 -81.313
LeftUpLeg  -87.3035 -4.34023 -12.7839
LeftLeg  124.983 -22.3635 12.0755
LeftFoot  -37.0326 0.388673 2.30772
LeftToes  9.37148e-011 4.50685e-012 -4.11107e-011
